<svg width="61" height="40" viewBox="0 0 61 40" fill="none" xmlns="http://www.w3.org/2000/svg">
<g clip-path="url(#clip0_121_1548)">
<path d="M45.6215 20.0034C45.5225 19.8986 45.4054 19.8124 45.2757 19.7493C44.3473 19.1943 43.4362 18.6117 42.4836 18.1051C41.8218 17.7628 41.1338 17.4738 40.4262 17.2407C39.5617 16.9433 39.062 16.2811 39.1779 15.3769C39.204 15.244 39.1958 15.1066 39.154 14.9777C39.1123 14.8488 39.0384 14.7327 38.9393 14.6404C38.616 14.3188 38.635 14.2566 39.1001 13.9903C39.013 13.8052 38.9413 13.6132 38.8857 13.4163C38.8608 13.2708 38.8764 13.1213 38.9306 12.9841C39.0759 12.6141 39.2661 12.2631 39.4044 11.8914C39.5098 11.6044 39.4044 11.4315 39.0586 11.4263C38.0903 11.395 37.1411 11.1481 36.2802 10.7036C35.8175 10.5047 35.3656 10.2813 34.9265 10.0346C34.2004 9.57467 33.4759 9.6421 32.7412 9.94639C32.5907 10.0086 32.4922 10.1936 32.3694 10.3233L32.4351 10.446L31.2249 10.37C30.9535 10.3527 30.6475 10.2472 30.4175 10.3371C30.006 10.4962 29.6291 10.4339 29.2349 10.3596L27.5268 10.0328C27.6668 10.4495 27.4369 10.4236 27.2242 10.3786C26.8784 10.3198 26.5188 10.2299 26.1627 10.1815C25.9068 10.1452 25.644 10.1521 25.2792 10.1366L25.6492 10.6241C24.9793 10.8981 24.2428 10.9657 23.5343 10.8181C22.8258 10.6706 22.1775 10.3146 21.6727 9.79597C20.6354 8.67218 20.3501 7.26658 20.2256 5.81948C20.0683 4.0024 20.5212 2.30807 21.3494 0.700188C21.4357 0.505653 21.5096 0.305853 21.5707 0.101986L21.4324 0.00170898C21.2137 0.120058 21.005 0.255935 20.8082 0.408003C19.8652 1.23073 19.238 2.35612 19.0344 3.59092C18.9203 4.28249 18.9479 4.99652 18.8822 5.69673C18.8701 5.83504 18.7232 5.96298 18.6385 6.09438C18.5313 5.97854 18.348 5.86962 18.3342 5.7486C18.2771 5.25067 18.2685 4.74583 18.2529 4.24445C18.2425 3.95053 18.2529 3.65835 18.2529 3.25724C18.0461 3.39213 17.871 3.57011 17.7394 3.77899C17.6078 3.98787 17.5229 4.22273 17.4905 4.46748C17.2017 5.91285 17.4127 7.27177 18.2633 8.50621C18.3675 8.6826 18.4599 8.86568 18.5399 9.05427L18.367 9.158C18.1279 8.90347 17.9083 8.63126 17.71 8.34369C17.4524 7.91319 17.2657 7.43947 17.0185 6.9986C16.9118 6.84633 16.7876 6.70707 16.6485 6.58366C16.5811 6.77557 16.5085 6.96575 16.4497 7.15939C16.4415 7.21723 16.4457 7.27613 16.4618 7.33228C16.6229 8.53215 17.1782 9.64447 18.0403 10.4945C19.0551 11.5093 20.2688 12.2113 21.5724 12.7818C21.7125 12.844 21.9303 12.9841 21.9286 13.0844C21.947 13.7005 21.9024 14.3169 21.7955 14.9239C21.5482 16.02 20.4607 16.3797 19.5375 15.7279C18.967 15.3233 18.7733 15.3129 18.2789 15.8402C17.7837 16.3664 17.1514 16.7437 16.4531 16.9294C15.8169 17.1023 15.1858 17.3133 14.5513 17.5242C14.2236 17.6295 13.9045 17.7601 13.597 17.9149C13.4777 17.9772 13.412 18.1449 13.3221 18.2607L13.6454 18.4872L13.1267 18.8451L13.4863 19.1338C13.4492 19.1837 13.4179 19.2376 13.393 19.2946C13.3549 19.4156 13.3273 19.5401 13.2944 19.6628C13.4293 19.6871 13.578 19.7597 13.6938 19.7251C13.9669 19.634 14.2322 19.5213 14.4874 19.388C15.5437 18.8693 16.6139 18.3506 17.6478 17.7922C18.6817 17.2337 19.6257 17.3271 20.6302 17.8907C21.1955 18.2071 21.8577 18.3679 22.4905 18.5442C23.0247 18.6929 23.5157 18.5149 23.9428 18.1708C24.3231 17.8631 24.6966 17.5467 25.0786 17.2389C25.3695 16.9876 25.7191 16.8137 26.0951 16.7333C26.471 16.6529 26.8612 16.6686 27.2294 16.779C27.6308 16.9076 28.024 17.0606 28.4068 17.2372C29.1641 17.5536 29.8988 17.9288 30.6734 18.195C31.8624 18.6278 33.1594 18.6654 34.3715 18.3022C35.3466 17.9962 36.1471 18.0757 36.792 18.9194C37.1049 19.324 37.4836 19.4381 38.0126 19.2808C39.2004 18.9211 40.3726 18.9488 41.4808 19.5937C41.9787 19.8841 42.4766 20.1763 42.9919 20.4305C43.4727 20.6615 43.9663 20.8653 44.4701 21.0408C44.6358 21.0795 44.8093 21.0672 44.9679 21.0055C45.1265 20.9438 45.2628 20.8355 45.3587 20.695L45.8947 20.4858C45.8172 20.3177 45.7258 20.1564 45.6215 20.0034Z" fill="#2D2D2D"/>
<path d="M57.4628 25.8142C57.1595 25.5995 56.8315 25.4219 56.486 25.2852C56.0001 25.1123 55.4849 25.031 54.9905 24.8841C53.7778 24.5266 52.4877 24.5266 51.275 24.8841C49.183 25.4978 47.4714 26.7012 46.5292 28.7759C46.4185 29.0196 46.4306 29.3274 46.2958 29.5521C45.7771 30.4339 45.8653 31.4107 45.7771 32.7748C45.8514 33.2278 45.9915 34.0715 46.1333 34.9152C46.3684 36.307 47.2121 37.3201 48.2927 38.1085C49.4009 38.9159 50.5541 39.6178 52.0254 39.7354C53.0817 39.8218 54.0914 40.0068 55.1754 39.789C56.3511 39.5539 57.2813 38.985 58.1267 38.2122C58.4431 37.9235 58.6765 37.5449 58.9825 37.2423C60.1184 36.122 60.6423 34.7198 60.8532 33.1828C61.0641 31.6458 60.7806 30.2299 60.2031 28.8139C59.6551 27.4481 58.6281 26.5732 57.4628 25.8142ZM55.9759 35.3232C54.9908 36.0767 53.7488 36.4127 52.5181 36.2586C50.9275 36.0632 50.1184 35.1365 49.579 33.6877C49.1087 32.4308 49.3525 31.3243 49.7899 30.1815C49.8746 29.9671 50.0064 29.7745 50.1754 29.6178C50.8549 28.9902 51.5015 28.4232 52.551 28.3056C53.3929 28.2105 54.1623 28.3678 54.9127 28.5338C56.0226 28.7793 56.6312 29.7095 56.9752 30.733C57.1827 31.3485 57.1948 32.0297 57.2916 32.659C57.1879 33.7482 56.773 34.7388 55.9759 35.3301V35.3232Z" fill="#2D2D2D"/>
<path d="M32.4784 6.03205C32.3954 6.13406 32.3694 6.42797 32.4386 6.48157C32.7393 6.69321 33.0529 6.88606 33.3774 7.05902C33.4725 7.20598 33.5866 7.41345 33.7232 7.42382C34.2107 7.46358 34.7035 7.43938 35.2308 7.43938L34.4095 8.41967L34.7398 8.56317L34.2038 8.9833C34.3335 9.05937 34.3992 9.10778 34.4718 9.14062C35.0613 9.40688 35.6613 9.65065 36.2387 9.93938C37.146 10.3809 38.1187 10.6728 39.1191 10.8038C39.5202 10.8626 39.7899 10.7554 39.8988 10.3318C39.9594 10.1094 40.0429 9.89392 40.1478 9.68869C40.3829 9.18204 40.7163 8.72709 41.1285 8.35019C41.5407 7.97328 42.0236 7.68192 42.5492 7.49298C43.7716 7.04519 44.349 6.20148 44.2228 4.96013C44.1848 4.5815 43.9929 4.40515 43.635 4.43108C43.2328 4.45309 42.8325 4.50218 42.4369 4.57804C41.7609 4.71635 41.2093 4.59706 40.727 4.05937C40.1858 3.4456 39.5167 3.03931 38.635 3.16898C38.1023 3.23673 37.5626 3.11889 37.1066 2.8353C36.7833 2.65203 36.4358 2.44111 36.0831 2.40307C34.9423 2.24546 33.7844 2.52998 32.8466 3.19837C32.7075 3.32348 32.5796 3.46059 32.4645 3.60812C32.7256 3.69111 32.9002 3.74125 33.0679 3.80522C33.1544 3.83806 33.3013 3.90204 33.2996 3.94526C33.284 4.32043 33.5849 4.29104 33.801 4.35155C33.9739 4.40169 34.1467 4.43108 34.311 4.47085L34.3283 4.59014C33.9324 4.87022 33.5313 5.14166 33.144 5.43385C32.9002 5.60742 32.6769 5.8081 32.4784 6.03205ZM43.8528 4.9463C43.8528 5.04139 43.9116 5.24021 43.839 5.31628C43.7031 5.46795 43.5206 5.57012 43.3203 5.60674C43.1721 5.63393 43.019 5.607 42.8889 5.53085C42.7588 5.45471 42.6604 5.33439 42.6115 5.1918L43.8528 4.9463Z" fill="#2D2D2D"/>
<path d="M16.7609 21.3677C16.9611 21.3397 17.1572 21.2881 17.3452 21.2138C17.9019 20.913 18.4517 20.6 18.986 20.2629C19.7121 19.8047 20.478 19.5022 21.3476 19.5713C21.7641 19.6141 22.1779 19.6793 22.5873 19.7667C23.7508 19.9984 24.738 19.7356 25.561 18.8366C26.0137 18.3765 26.4947 17.9452 27.0012 17.5451C27.2363 17.3462 27.1844 17.1664 26.9476 17.1025C26.6806 17.0135 26.3935 17.0038 26.1212 17.0748C25.8006 17.1994 25.5114 17.393 25.274 17.6419C24.1381 18.8054 22.8535 19.3431 21.2145 18.8262C20.6777 18.6598 20.1238 18.5548 19.5634 18.5133C19.1947 18.4703 18.8214 18.5301 18.4846 18.6861C17.6582 19.1339 16.8421 19.6336 16.6658 20.709L16.9476 20.8179L16.7038 21.2363L16.7609 21.3677Z" fill="#2D2D2D"/>
<path d="M41.1471 15.2092C40.746 15.1833 40.3484 15.1072 39.949 15.0761C39.6741 15.0554 39.5583 15.2058 39.5911 15.4807C39.6155 15.7933 39.7491 16.0874 39.9685 16.3115C40.1878 16.5356 40.479 16.6754 40.791 16.7065C41.2042 16.7532 41.6226 16.7445 42.0375 16.7825C43.0507 16.8742 44.0655 16.9658 45.077 17.0868C45.3916 17.1249 45.689 17.2373 45.6164 16.7497L46.2786 16.8638L46.1264 16.4039L46.799 16.3399C46.7567 16.1595 46.6583 15.9972 46.5178 15.8763C46.3774 15.7555 46.2022 15.6823 46.0175 15.6674C45.0268 15.5135 44.0292 15.4012 43.0317 15.3061C42.4058 15.2455 41.7782 15.2525 41.1471 15.2092Z" fill="#2D2D2D"/>
<path d="M18.6333 34.1166C19.7502 33.9973 20.8688 33.8988 21.9874 33.802C23.8529 33.6394 25.7184 33.4908 27.5821 33.3248C28.1268 33.2764 28.253 33.1519 28.2979 32.5969C28.4123 31.3172 28.2586 30.0276 27.8467 28.8106C27.3142 27.2736 26.2457 26.0807 24.8626 25.2491C23.4397 24.3932 21.8525 24.1391 20.1945 24.3673C18.9448 24.5248 17.7722 25.0577 16.8318 25.8957C16.3045 26.3659 15.874 26.9468 15.4245 27.4966C14.6326 28.4648 14.2972 29.6266 14.1416 30.8334C13.9703 32.1342 14.0531 33.4559 14.3854 34.7252C14.828 36.4351 15.7374 37.8372 17.1689 38.7968C17.4186 38.9643 17.6791 39.115 17.9487 39.248C18.0939 39.3206 18.2409 39.3863 18.3895 39.4468C19.4497 39.8745 20.5926 40.0577 21.7333 39.9828C21.8301 39.9828 21.9286 39.9932 22.0237 39.9828C22.0561 39.9811 22.0885 39.9776 22.1205 39.9724C23.0818 39.8203 24.0898 39.7995 24.994 39.4728C26.4999 38.9368 27.4335 37.7041 28.1959 36.3435C28.3308 36.1066 28.2979 35.9406 28.0662 35.8058C27.6185 35.5464 27.1845 35.2577 26.7194 35.0329C25.7011 34.5402 25.6821 34.5419 24.911 35.3787C24.4024 35.9182 23.7172 36.2575 22.9798 36.3348C22.5188 36.3982 22.0612 36.4489 21.607 36.487C20.2239 36.6028 19.0828 36.1654 18.2443 35.0347C17.8449 34.4866 17.9642 34.1806 18.6333 34.1166ZM17.7844 30.3217C18.049 29.2221 18.8218 28.6273 19.8142 28.221C20.7694 27.8247 21.8394 27.805 22.8086 28.1657C23.8788 28.5374 24.624 29.2359 24.8539 30.4946C24.1433 30.5378 23.4881 30.5827 22.8311 30.619C21.2958 30.702 19.76 30.7821 18.2236 30.8594C17.7844 30.8836 17.6807 30.7556 17.7844 30.3217Z" fill="#2D2D2D"/>
<path d="M12.1464 34.2669C11.9096 33.5148 11.5379 32.8837 10.8826 32.4152C10.7097 32.2925 10.5074 32.1472 10.7495 31.8965C11.1324 31.5081 11.4313 31.045 11.6276 30.5361C11.8239 30.0272 11.9134 29.4834 11.8906 28.9384C11.8906 28.1535 11.7436 27.4896 11.2249 26.9156C10.0147 25.5757 8.61083 24.6524 6.7073 24.6922C5.66996 24.7147 4.61533 24.6369 3.56934 24.6161C2.8674 24.6023 2.16373 24.6161 1.4618 24.604C1.17653 24.604 1.06933 24.7008 1.06588 25.012C1.05204 26.8948 1.01055 28.7793 0.97943 30.6638C0.953496 32.244 0.932753 33.8225 0.901632 35.4028C0.901632 35.6898 0.82556 35.975 0.835933 36.2672C0.863596 37.0694 0.91719 37.8699 0.958684 38.6721H0.913736C0.913736 38.9315 0.931025 39.1908 0.913736 39.4501C0.882616 39.8046 1.00018 39.955 1.37362 39.9048C1.6429 39.8678 1.9155 39.8614 2.18621 39.8858C4.12604 40.0587 6.06415 39.9515 7.99534 39.7907C10.1046 39.6178 11.5085 38.4975 12.1828 36.4799C12.4104 35.7577 12.3977 34.9812 12.1464 34.2669ZM4.52888 28.6756C4.52888 28.3298 4.66546 28.1569 5.05965 28.2105C5.39214 28.2368 5.72607 28.2397 6.05896 28.2192C6.43759 28.2555 6.95281 28.2935 7.46457 28.3592C7.79479 28.4007 8.0645 28.603 8.06968 28.9332C8.07472 29.3556 8.01644 29.7763 7.89679 30.1815C7.84777 30.2735 7.77779 30.3528 7.6925 30.4129C7.60721 30.4729 7.509 30.5121 7.40578 30.5272C6.56553 30.6206 5.71837 30.6621 4.87293 30.7192C4.82721 30.7285 4.77989 30.7268 4.735 30.714C4.6901 30.7012 4.64895 30.6778 4.61502 30.6457C4.5811 30.6137 4.5554 30.5739 4.5401 30.5298C4.5248 30.4857 4.52036 30.4386 4.52715 30.3924C4.52715 29.8236 4.52369 29.2496 4.52888 28.6756ZM7.28303 36.3537C6.79202 36.4401 6.28545 36.4453 5.7858 36.4868V36.4142C5.45385 36.4142 5.12362 36.4142 4.7934 36.4142C4.56691 36.4142 4.49603 36.3122 4.50468 36.0961C4.52715 35.5065 4.55136 34.9169 4.54444 34.3291C4.53526 34.2759 4.53795 34.2213 4.55233 34.1693C4.5667 34.1172 4.59239 34.069 4.62758 34.028C4.66277 33.987 4.70657 33.9543 4.75586 33.9323C4.80515 33.9102 4.8587 33.8993 4.9127 33.9003C5.79962 33.8225 6.68828 33.7378 7.57694 33.6998C7.97978 33.6825 8.36187 34.2358 8.41892 34.8132C8.50018 35.6586 8.11809 36.2084 7.28303 36.3537Z" fill="#2D2D2D"/>
<path d="M44.0466 35.4322C43.393 35.1141 42.6963 34.8789 42.0134 34.6213C41.6676 34.4865 41.4013 34.6213 41.1385 34.8928C40.7593 35.3018 40.3361 35.6677 39.8764 35.9837C39.0656 36.5127 38.1302 36.5369 37.2087 36.4107C36.5172 36.3174 35.7876 36.2603 35.2343 35.7659C33.8668 34.5435 33.5296 32.9996 33.9307 31.2707C34.0135 30.9063 34.1511 30.5565 34.3388 30.2334C34.5601 29.8564 34.8004 29.4329 35.1462 29.196C36.6382 28.1777 38.7959 27.9668 40.3467 29.0525C40.5181 29.184 40.7044 29.2948 40.9017 29.3827C40.97 29.4129 41.0439 29.4285 41.1187 29.4285C41.1934 29.4285 41.2673 29.4129 41.3356 29.3827C42.0497 28.8502 42.7533 28.3022 43.4363 27.7299C43.4825 27.6629 43.511 27.5851 43.5188 27.5041C43.5267 27.423 43.5137 27.3412 43.4812 27.2665C43.1078 26.8343 42.762 26.307 42.2796 26.0563C40.8343 25.2991 39.3647 24.5245 37.6565 24.7026C36.002 24.6801 34.5843 25.3042 33.2323 26.1445C31.9496 26.9252 31.0284 28.1822 30.67 29.6403C30.4913 30.2775 30.3567 30.9262 30.2672 31.5819C30.1392 32.6192 30.1133 33.6479 30.4677 34.6542C30.7485 35.4707 31.145 36.2428 31.6451 36.9467C32.1275 37.6175 32.6271 38.2468 33.3222 38.7067C35.1617 39.917 37.1672 40.2091 39.3145 39.8547C41.5068 39.4916 43.1925 38.4111 44.3284 36.4937C44.6551 35.9508 44.6309 35.7174 44.0466 35.4322Z" fill="#2D2D2D"/>
</g>
<defs>
<clipPath id="clip0_121_1548">
<rect width="60.0916" height="40" fill="white" transform="translate(0.835938)"/>
</clipPath>
</defs>
</svg>
